# xmcd
#
# Track frame offsets: 
#        150
#        19698
#        39759
#        65274
#        93867
#        115143
#        142035
#        164391
#        186018
#        213855
#
# Disc length: 3207 seconds
#
# Revision: 0
# Processed by: cddbd v1.5.2PL0 Copyright (c) Steve Scherf et al.
# Submitted via: ExactAudioCopy v1.0b3
#
DISCID=7a0c850a
DTITLE=Various Artist - Xuan va Tuoi Tre
DYEAR=1990
DGENRE=
TTITLE0=Elvis Phuong - Anh cho em mua Xuan
TTITLE1=Vi Lan - Kiep hoa Xuan
TTITLE2=Vu Khanh - Mua Xuan cua Me
TTITLE3=Hang Nga - Don Xuan
TTITLE4=Huyen Chau - Xuan va tuoi tre
TTITLE5=Vu Khanh - Toi chua co mua Xuan
TTITLE6=Phuong Loan - Xuan ca
TTITLE7=Elvis Phuong - Rung chua thay la
TTITLE8=Le Hang - Mua Xuan dau
TTITLE9=Carol Kim - Doi nga chia ly
EXTD=
EXTT0=
EXTT1=
EXTT2=
EXTT3=
EXTT4=
EXTT5=
EXTT6=
EXTT7=
EXTT8=
EXTT9=
PLAYORDER=
